HIERARCHY
ROOT root
{
	OFFSET 0.000000 0.000000 0.000000
	CHANNELS 6 Xposition Yposition Zposition Zrotation Yrotation Xrotation
	JOINT lhip
	{
		OFFSET 0.058581 -0.082280 -0.017664
		CHANNELS 3 Zrotation Yrotation Xrotation
		JOINT lknee
		{
			OFFSET 0.043451 -0.386469 0.008037
			CHANNELS 3 Zrotation Yrotation Xrotation
			JOINT lankle
			{
				OFFSET -0.014790 -0.426874 -0.037428
				CHANNELS 3 Zrotation Yrotation Xrotation
				JOINT ltoe
				{
					OFFSET 0.041054 -0.060286 0.122042
					CHANNELS 3 Zrotation Yrotation Xrotation
					End Site
					{
						OFFSET 0.000000 0.000000 0.000000
					}
				}
			}
		}
	}
	JOINT rhip
	{
		OFFSET -0.060310 -0.090513 -0.013543
		CHANNELS 3 Zrotation Yrotation Xrotation
		JOINT rknee
		{
			OFFSET -0.043257 -0.383688 -0.004843
			CHANNELS 3 Zrotation Yrotation Xrotation
			JOINT rankle
			{
				OFFSET 0.019056 -0.420046 -0.034562
				CHANNELS 3 Zrotation Yrotation Xrotation
				JOINT rtoe
				{
					OFFSET -0.034840 -0.062106 0.130323
					CHANNELS 3 Zrotation Yrotation Xrotation
					End Site
					{
						OFFSET 0.000000 0.000000 0.000000
					}
				}
			}
		}
	}
	JOINT lowerback
	{
		OFFSET 0.004439 0.124404 -0.038385
		CHANNELS 3 Zrotation Yrotation Xrotation
		JOINT upperback
		{
			OFFSET 0.004488 0.137956 0.026820
			CHANNELS 3 Zrotation Yrotation Xrotation
			JOINT chest
			{
				OFFSET -0.002265 0.056032 0.002855
				CHANNELS 3 Zrotation Yrotation Xrotation
				JOINT lowerneck
				{
					OFFSET -0.013390 0.211636 -0.033468
					CHANNELS 3 Zrotation Yrotation Xrotation
					JOINT upperneck
					{
						OFFSET 0.010113 0.088937 0.050410
						CHANNELS 3 Zrotation Yrotation Xrotation
						End Site
						{
							OFFSET 0.000000 0.000000 0.000000
						}
					}
				}
				JOINT lclavicle
				{
					OFFSET 0.071702 0.114000 -0.018898
					CHANNELS 3 Zrotation Yrotation Xrotation
					JOINT lshoulder
					{
						OFFSET 0.122921 0.045205 -0.019046
						CHANNELS 3 Zrotation Yrotation Xrotation
						JOINT lelbow
						{
							OFFSET 0.255332 -0.015649 -0.022946
							CHANNELS 3 Zrotation Yrotation Xrotation
							JOINT lwrist
							{
								OFFSET 0.265709 0.012698 -0.007375
								CHANNELS 3 Zrotation Yrotation Xrotation
								End Site
								{
									OFFSET 0.000000 0.000000 0.000000
								}
							}
						}
					}
				}
				JOINT rclavicle
				{
					OFFSET -0.082954 0.112472 -0.023707
					CHANNELS 3 Zrotation Yrotation Xrotation
					JOINT rshoulder
					{
						OFFSET -0.113228 0.046853 -0.008472
						CHANNELS 3 Zrotation Yrotation Xrotation
						JOINT relbow
						{
							OFFSET -0.260127 -0.014369 -0.031269
							CHANNELS 3 Zrotation Yrotation Xrotation
							JOINT rwrist
							{
								OFFSET -0.269108 0.006794 -0.006027
								CHANNELS 3 Zrotation Yrotation Xrotation
								End Site
								{
									OFFSET 0.000000 0.000000 0.000000
								}
							}
						}
					}
				}
			}
		}
	}
}
MOTION
Frames: 14
Frame Time: 0.033333
0.021326 -0.120094 1.017773 178.627636 -19.612341 77.916071 24.994286 7.610522 -58.041519 -1.103593 18.140438 131.557874 -0.005391 -0.256750 -23.738932 0.000000 -0.000000 0.000000 -25.267586 -10.906966 -2.920442 2.460557 5.600757 24.026241 4.234577 2.812784 -21.409048 0.000000 -0.000000 0.000000 2.352683 7.873914 31.725133 1.506125 -3.310134 -4.174417 -1.443217 -1.073288 3.219025 -6.466777 12.193045 12.618151 -4.019016 15.409108 23.799951 -31.684270 9.084879 4.129207 -55.032928 0.846138 -0.321763 10.656630 -46.581579 4.559016 20.067106 -4.488046 -15.930559 31.686291 -4.300237 6.512593 41.474437 6.227815 3.425111 -14.580113 45.353490 -8.254744 -13.059041 6.063954 -2.370440 
0.007717 -0.121406 1.017050 179.179370 -20.957829 78.167929 26.943126 7.231977 -57.797926 -1.243133 16.228659 125.680062 -0.436351 1.181075 -20.382341 0.000000 -0.000000 0.000000 -27.249054 -10.944793 -4.081094 2.377280 6.232761 25.200078 3.893051 2.620348 -21.359627 0.000000 -0.000000 0.000000 2.538819 7.576981 31.327536 1.246321 -3.452096 -3.945304 -1.826817 -1.540926 3.207421 -6.421758 12.258835 12.325182 -4.185632 14.945658 24.077013 -31.613699 9.303420 4.281292 -54.749573 0.166248 -0.376661 11.027518 -46.238957 4.321034 20.040539 -4.593060 -16.061192 31.874494 -4.558049 6.562382 41.045442 6.521125 3.323215 -14.815797 45.257190 -8.998269 -13.346192 6.538660 -1.926614 
-0.004988 -0.121760 1.015666 179.358948 -21.805375 78.179271 27.862159 6.953092 -55.906557 -1.298502 14.281213 118.445510 -1.446040 2.427162 -15.075281 0.000000 -0.000000 0.000000 -28.482142 -10.831761 -4.964157 2.104189 6.861754 26.437680 3.643224 2.056950 -21.402016 0.000000 -0.000000 0.000000 2.869852 6.914532 31.019378 1.034250 -3.251161 -3.199910 -2.047161 -1.648938 3.070213 -6.646634 12.020769 11.939194 -4.427328 14.444124 24.149013 -31.833154 9.531725 3.910887 -54.357189 -0.388670 -0.162461 11.402200 -45.891208 3.825647 20.506877 -4.632583 -16.153391 32.091357 -4.526458 6.536772 40.268300 6.559476 3.393537 -14.902011 45.231443 -9.760555 -13.467562 6.849327 -1.551475 
-0.017557 -0.120829 1.013793 179.443015 -22.394599 78.056222 26.992700 6.905912 -52.736821 -1.826957 12.156625 110.073299 -2.681573 2.941721 -9.824064 0.000000 -0.000000 0.000000 -29.493773 -10.752302 -5.428341 1.570583 7.313492 27.410932 3.184042 2.179715 -21.767155 0.000000 -0.000000 0.000000 3.425740 5.952231 30.782565 0.636344 -3.090272 -2.462373 -2.183716 -1.625105 2.860431 -7.023087 12.057642 12.015310 -4.633499 14.316914 24.163170 -31.948323 9.642348 3.600128 -54.139609 -0.442590 -0.180400 11.871381 -45.901830 3.009509 20.055536 -4.542617 -16.257399 32.164492 -4.248016 6.598481 39.730401 6.492984 3.101009 -14.768008 44.991811 -10.341047 -13.187033 7.326077 -0.716781 
-0.031355 -0.119610 1.010394 -179.992301 -22.555889 77.909344 25.359068 6.250520 -49.127661 -3.050398 10.456170 100.608081 -3.122765 3.512591 -5.676133 0.000000 -0.000000 0.000000 -30.674569 -11.035086 -5.852011 1.737006 7.225725 28.585581 2.933588 2.204677 -22.054336 0.000000 -0.000000 0.000000 4.442573 4.667348 30.242614 0.402604 -3.073791 -1.924933 -2.450692 -1.798275 3.188114 -7.294848 11.487046 11.403427 -5.099738 14.087593 24.312071 -32.006862 9.755603 3.003249 -54.161421 -0.560425 0.204175 12.343892 -45.426599 1.910066 21.491447 -4.702449 -16.414846 31.953474 -4.069834 6.259574 39.249620 6.536089 3.261066 -14.630397 44.707695 -11.046077 -13.343604 7.744890 0.270881 
-0.045511 -0.117864 1.006789 179.979684 -22.497901 78.431877 23.444938 6.204628 -44.636966 -3.784275 8.849595 90.121522 -3.563929 3.772861 -3.468666 0.000000 -0.000000 0.000000 -31.263830 -11.476727 -6.983570 1.630344 7.459074 29.811532 2.773364 2.725085 -22.579072 0.000000 -0.000000 0.000000 5.319106 3.499379 29.262179 0.262337 -2.829297 -1.502052 -2.494736 -1.800264 3.008381 -7.550608 11.226077 11.848993 -5.514222 14.191343 24.017676 -32.500415 9.950647 2.823791 -53.895038 -0.079583 0.136165 12.842903 -45.711152 0.789258 20.389413 -5.087915 -15.369914 31.855486 -3.965089 6.462572 38.286249 6.317324 2.745558 -14.080342 44.816697 -11.510730 -12.705690 8.209647 1.104216 
-0.060320 -0.115218 1.002550 179.617805 -22.280162 78.853369 21.742809 6.056835 -39.132890 -4.439500 7.552795 78.894921 -4.557509 3.571138 -2.202035 0.000000 -0.000000 0.000000 -31.746129 -11.130922 -7.901425 1.356516 7.054459 30.765353 2.927101 2.863758 -22.984965 0.000000 -0.000000 0.000000 6.261474 2.263156 28.373074 0.072835 -2.468120 -0.734958 -2.638885 -1.748932 2.735404 -7.346704 11.101637 12.040908 -6.069636 13.758567 23.960739 -32.752233 9.846655 2.443357 -53.974780 0.459041 0.303567 14.016821 -45.033353 -1.162247 20.095095 -6.364804 -14.038681 31.844639 -3.731155 6.347021 37.396081 6.091480 2.684871 -13.992665 44.648825 -12.247391 -12.471655 8.725855 1.857928 
-0.076497 -0.111100 0.997181 179.092618 -21.884856 79.410487 20.495536 5.933388 -33.216541 -5.290576 6.982143 67.047828 -5.912581 3.720366 0.489834 0.000000 -0.000000 0.000000 -32.133319 -10.951861 -8.953199 1.199883 6.990422 31.862205 3.119638 3.025166 -23.391574 0.000000 -0.000000 0.000000 7.231832 1.052297 27.123026 -0.013161 -1.993570 0.084416 -2.831776 -1.775330 2.696430 -7.212559 10.910662 11.840354 -6.673034 13.348687 23.915304 -32.941348 10.726720 1.826168 -54.294323 0.547569 0.306831 14.325247 -44.599235 -1.424668 17.895447 -7.165939 -13.273246 31.455056 -3.944951 6.203601 36.983938 6.364354 2.636506 -14.192796 44.520443 -12.826364 -11.535427 8.936625 2.307352 
-0.093636 -0.105482 0.990911 178.401416 -21.275146 79.633247 19.714317 5.340115 -26.795038 -6.023741 7.049387 55.485856 -8.351721 3.851651 4.220777 0.000000 -0.000000 0.000000 -32.299328 -10.124908 -9.592702 0.848678 6.539513 32.895141 3.157725 2.830859 -23.893606 0.000000 -0.000000 0.000000 8.030162 -0.064282 26.312339 -0.061926 -1.610849 0.888204 -2.862127 -1.860216 2.428370 -6.924879 10.900978 11.941202 -7.064367 13.249667 23.813448 -33.033574 11.524799 1.347273 -54.620279 0.861124 0.311861 14.500959 -43.914121 -1.790512 16.780963 -8.158137 -12.153550 31.050421 -3.960775 6.165743 36.526457 6.553637 2.733558 -14.123935 44.309997 -13.369904 -11.822641 9.245762 2.360648 
-0.113635 -0.100008 0.984532 177.527471 -20.663680 80.404976 18.430871 5.003871 -21.286077 -7.711942 5.992555 44.690011 -10.568765 4.091976 6.873674 0.000000 -0.000000 0.000000 -32.451188 -9.442288 -10.688233 0.534566 6.751414 33.565585 3.595457 2.517055 -24.198720 0.000000 -0.000000 0.000000 8.760431 -1.020967 25.214295 -0.077953 -1.447575 1.491370 -3.022678 -1.805008 2.075483 -6.528962 10.312176 11.854241 -7.511150 12.576234 23.423222 -33.371253 11.468225 1.150522 -54.568377 1.981875 0.813815 15.006406 -43.434461 -3.520874 15.631185 -8.602436 -11.719648 31.099015 -3.725101 5.791587 35.438205 6.195240 2.876423 -14.484592 44.323915 -14.442564 -10.629479 9.363922 3.676065 
-0.135385 -0.094948 0.977295 176.887193 -19.569646 81.324549 17.087028 5.905324 -16.886381 -9.162362 2.641242 35.884290 -13.474643 2.186544 9.290694 0.000000 -0.000000 0.000000 -32.471943 -9.573859 -11.900891 0.272507 6.515455 34.257212 4.024549 3.065344 -24.282060 0.000000 -0.000000 0.000000 9.520519 -2.000573 23.840564 0.088937 -1.179451 1.989793 -2.967347 -1.845538 2.179937 -6.023156 10.126052 11.286967 -8.146890 11.828838 23.320387 -33.619306 12.027724 0.450446 -54.903434 2.315424 1.148741 14.724076 -42.550614 -3.628203 15.066954 -9.320258 -10.804416 30.886615 -3.891701 5.178214 34.430455 6.462371 2.683179 -14.111434 44.223842 -14.642308 -10.523156 9.761864 4.152705 
-0.157998 -0.089811 0.969183 176.527724 -17.752089 82.093194 16.143678 7.273003 -13.543133 -9.297048 -0.909972 29.700752 -16.160038 0.714655 11.613599 0.000000 -0.000000 0.000000 -31.821607 -9.655961 -12.603441 -0.030667 6.493616 34.452052 4.392161 3.392558 -24.153481 0.000000 -0.000000 0.000000 10.319770 -3.138158 22.793050 0.517278 -1.078770 2.308611 -2.667747 -1.684493 2.068720 -5.664377 9.507108 10.866760 -8.394654 10.957809 22.996181 -33.761254 12.267167 0.082325 -55.449845 2.821964 1.221004 14.636618 -41.907955 -3.425731 14.281208 -9.715919 -10.430588 30.503770 -3.744296 4.942896 33.458153 6.401539 2.072333 -13.742191 44.390841 -14.574621 -10.562158 9.885492 4.107757 
-0.182854 -0.085359 0.960392 176.261990 -15.865571 82.922071 15.119597 8.649878 -11.088309 -8.951690 -2.963899 25.836969 -17.325188 0.753248 12.672798 0.000000 -0.000000 0.000000 -31.435881 -9.846739 -13.357815 0.003756 6.259834 34.552376 4.826898 3.649667 -23.914632 0.000000 -0.000000 0.000000 10.845356 -3.909722 21.956237 0.914422 -0.942651 2.191877 -2.344376 -1.739507 2.292916 -4.662692 8.384235 10.244535 -8.418977 9.988976 22.705116 -33.834313 12.321583 0.129969 -55.579017 3.468542 1.672047 13.952467 -42.229170 -2.382970 13.706301 -9.424274 -10.822165 30.434983 -3.569355 4.396849 32.485324 6.430012 1.533123 -13.469799 44.092459 -14.633055 -10.526476 10.026195 4.526740 
-0.208658 -0.081821 0.949831 175.709351 -13.852050 83.662730 14.476142 9.863588 -9.039369 -9.123827 -3.932262 24.054109 -17.223902 0.793259 11.740093 0.000000 -0.000000 0.000000 -31.066088 -9.791694 -14.423056 0.205048 5.862211 35.019942 5.512033 4.130119 -23.741276 0.000000 -0.000000 0.000000 10.758593 -4.445818 21.994492 1.260231 -0.660141 1.514714 -1.918176 -1.736476 2.387358 -3.599656 7.651199 9.667050 -8.371074 9.061627 22.431653 -33.452868 12.784339 -0.101313 -55.482462 3.797435 1.666834 12.940140 -42.413358 -1.586524 13.876318 -10.289354 -9.670966 30.305340 -3.643267 3.844829 31.958513 6.707161 1.296117 -13.123452 43.610707 -14.869055 -10.627045 10.231410 5.123044 
